<svg width="21" height="16" viewBox="0 0 21 16" fill="none" xmlns="http://www.w3.org/2000/svg">
<path d="M17.789 1.34C16.4296 0.714 14.9761 0.259052 13.4565 0C13.2699 0.332095 13.0519 0.77877 12.9016 1.1341C11.2862 0.894993 9.68567 0.894993 8.10001 1.1341C7.94972 0.77877 7.72674 0.332095 7.53844 0C6.01721 0.259052 4.56204 0.715671 3.20267 1.34331C0.460812 5.42136 -0.28246 9.39811 0.0891771 13.3184C1.90772 14.655 3.67011 15.467 5.40275 15.9984C5.83055 15.4189 6.21209 14.8028 6.54078 14.1536C5.91478 13.9195 5.31521 13.6306 4.74869 13.2952C4.89898 13.1856 5.046 13.071 5.18803 12.9531C8.64342 14.5438 12.3978 14.5438 15.8119 12.9531C15.9556 13.071 16.1026 13.1856 16.2512 13.2952C15.683 13.6322 15.0818 13.9211 14.4558 14.1553C14.7845 14.8028 15.1644 15.4205 15.5939 16C17.3282 15.4687 19.0922 14.6567 20.9107 13.3184C21.3468 8.77378 20.1658 4.83355 17.789 1.34ZM7.01153 10.9075C5.97426 10.9075 5.12361 9.95435 5.12361 8.7937C5.12361 7.63305 5.95609 6.67831 7.01153 6.67831C8.06699 6.67831 8.91761 7.63138 8.89945 8.7937C8.90109 9.95435 8.06699 10.9075 7.01153 10.9075ZM13.9884 10.9075C12.9511 10.9075 12.1005 9.95435 12.1005 8.7937C12.1005 7.63305 12.9329 6.67831 13.9884 6.67831C15.0438 6.67831 15.8945 7.63138 15.8763 8.7937C15.8763 9.95435 15.0438 10.9075 13.9884 10.9075Z" fill="currentColor"/>
</svg>