<svg id="Layer_1" enable-background="new 0 0 512.699 512.699" height="512" viewBox="0 0 512.699 512.699" width="512" xmlns="http://www.w3.org/2000/svg"><path d="m510.989 142.511-28.999-55.505 29.179-61.824c1.74-3.688 1.068-8.062-1.699-11.057-2.767-2.993-7.074-4.006-10.889-2.562-67.769 24.934-93.013-24.109-162.451-4.337-3.254-11.006-19.43-8.912-19.627 2.712v58.832c-83.436-34.896-185.686-14.223-249.013 50.535-89.219 85.612-89.229 239.658.002 325.269 199.018 188.426 496.032-49.291 357.701-284.507 11.144 2.887 22.782 5.179 35.815 5.179 13.158 0 27.738-2.336 44.663-8.752 5.488-1.941 8.133-8.885 5.318-13.983zm-115.929 9.431c15.097 19.18 26.4 40.293 33.876 62.327-11.583 31.672-7.531 12.85-38.556 13.027-6.642-.264-10.531-.522-13.233-2.75-2.683-2.212-6.401-8.2-8.883-24.169-2.418-17.108-15.482-28.103-31.761-28.357v-17.799c23.473-7.609 41.476-6.18 58.557-2.279zm-324.755-6.241c41.893 35.631 104.09 16.971 129.255 55.243 6.527 9.853 7.115 19.889 1.613 27.534-12.09 16.309-32.61 5.526-47.916-.629-19.579-8.149-39.826-16.578-57.466-1.339-7.018 6.063-11.034 13.826-11.613 22.449-.881 13.123 6.14 28.221 20.868 44.874 11.957 13.521 5.22 22.186 2.871 24.519-6.568 6.521-20.823 5.032-41.224-4.306-22.128-10.129-32.981-2.615-43.157 5.2-10.796-60.267 4.794-124.377 46.769-173.545zm-41.808 194.822c11.467-7.748 15.141-15.883 29.872-8.291 10.827 4.957 43.776 20.037 63.641.31 11.651-11.571 15.556-32.124-1.982-51.958-12.178-14.368-22.199-29.421-11.162-38.939 7.905-6.828 18.557-2.886 36.705 4.668 8.031 3.343 16.335 6.8 25.371 9.221 18.029 4.833 36.269-1.203 46.466-15.374 10.317-14.337 9.867-33.596-1.174-50.262-15.092-22.78-35.396-30.274-69.946-36.825-19.348-3.694-41.232-6.273-62.231-22.01 61.594-59.622 154.26-75.815 232.448-40.536v85.24c-69.539 29.649-12.523 124.505-87.236 122.377-41.692 1.606-53.74 66.269-3.107 79.05 10.012 2.683 14.934 6.572 15.272 9.051.32 2.352-2.853 9.023-17.149 17.444-44.768 26.578-31.758 60.538-22.68 86.222-77.88-8.421-153.082-72.741-173.108-149.388zm350.119 89.907c-42.654 42.654-99.242 63.087-155.247 61.301-9.781-28.43-21.952-52.653 11.065-70.81 24.409-14.378 28.055-28.26 26.816-37.375-.932-6.844-6.056-19.278-29.914-25.671-13.096-3.509-19.796-11.688-18.38-22.441 1.094-8.315 7.642-17.291 16.311-17.291 90.935-1.084 45.704-90.353 87.236-119.847v132.679h-10c-5.522 0-10 4.478-10 10s4.478 10 10 10h40c5.522 0 10-4.478 10-10s-4.478-10-10-10h-10v-138.949c5.428.628 10.229 1.739 11.997 11.423 4.339 29.776 15.627 44.272 41.087 43.831 5.499.219 10.692.425 15.651 2.492 12.366 5.235 23.611 3.518 31.404-5.84 12.077 65.991-7.746 136.219-58.026 186.498zm39.58-293.038c-22.383-6.357-47.431-13.472-81.693-4.042v-105.357c60.23-19.51 87.482 20.954 147.105 8.726l-21.826 46.244c-1.337 2.831-1.27 6.125.18 8.899l25.854 49.485c-28.052 7.855-48.311 2.099-69.62-3.955z"/></svg>