<svg width="40" height="40" viewBox="0 0 40 40" fill="none" xmlns="http://www.w3.org/2000/svg">
<rect width="40" height="40" fill="white"/>
<path fill-rule="evenodd" clip-rule="evenodd" d="M21.1589 11.4055V32.9692C21.2631 33.4283 24.112 34.5928 24.6296 34.8238L35.7285 40V3.70862C34.7291 4.03213 33.0459 5.0539 32.0639 5.57332C30.7879 6.23943 29.6804 6.77794 28.385 7.45611C27.1284 8.11418 25.9882 8.71699 24.7429 9.36803C23.9957 9.7689 21.4978 10.7917 21.1589 11.4055Z" fill="url(#paint0_radial_236_128)"/>
<path fill-rule="evenodd" clip-rule="evenodd" d="M21.1589 11.4055V32.9692C21.2631 33.4283 24.112 34.5928 24.6296 34.8238L35.7285 40V3.70862C34.7291 4.03213 33.0459 5.0539 32.0639 5.57332C30.7879 6.23943 29.6804 6.77794 28.385 7.45611C27.1284 8.11418 25.9882 8.71699 24.7429 9.36803C23.9957 9.7689 21.4978 10.7917 21.1589 11.4055Z" fill="#3873BB"/>
<path fill-rule="evenodd" clip-rule="evenodd" d="M5 40C5.67025 39.7855 11.1294 36.8597 12.2214 36.2789L19.3046 32.3682L19.2626 10.7022L5.002 3.97351" fill="#3873BB"/>
<path fill-rule="evenodd" clip-rule="evenodd" d="M20.3691 9.27152C21.3725 8.38063 22.5091 7.78083 23.6165 6.94188C24.1878 6.50771 24.6511 6.29993 25.2921 5.80695C25.918 5.3326 26.4076 5.06307 26.9759 4.68182C27.5725 4.28293 28.0388 3.90266 28.6364 3.53416C29.2512 3.15095 29.6953 2.73931 30.2627 2.36002C30.837 1.97093 31.2802 1.68867 31.9282 1.21725C32.2553 0.984977 32.4562 0.834045 32.7661 0.652731C33.2789 0.342047 33.183 0.461616 33.609 0L6.58911 0.0548843C7.21093 0.535122 7.60159 0.791902 8.21028 1.17315L13.3908 4.70045C14.3528 5.40316 19.723 9.11961 20.3691 9.27152Z" fill="#00B158"/>
<defs>
<radialGradient id="paint0_radial_236_128" cx="0" cy="0" r="1" gradientUnits="userSpaceOnUse" gradientTransform="translate(28.4433 21.8544) scale(15.6775 13.5857)">
<stop stop-color="#3F63AD"/>
<stop offset="0.2366" stop-color="#395DA4"/>
<stop offset="1" stop-color="#1C4075"/>
</radialGradient>
</defs>
</svg>
