<svg id="Layer_1" enable-background="new 0 0 123.483 123.483" height="512" viewBox="0 0 123.483 123.483" width="512" xmlns="http://www.w3.org/2000/svg"><path d="m120.657 90.358-5.812-5.821c-1.818-1.823-4.654 1.001-2.831 2.826l2.623 2.627h-37.756v-33.397h6.665c10.92 0 19.805-8.642 19.805-19.263 0-4.485-1.588-8.814-4.471-12.189-2.238-2.673-5.228-4.738-8.531-5.913-1.128-10.892-10.509-19.228-21.968-19.228-5.02 0-9.932 1.684-13.849 4.754-2.84 2.271-5.081 5.174-6.449 8.316-1.298-.322-2.601-.489-3.845-.489-8.069 0-14.775 6.089-15.513 13.813-5.258 2.811-8.592 8.212-8.592 14.082 0 8.887 7.429 16.117 16.561 16.117h4.432v33.397h-32.28l2.623-2.627c1.82-1.822-1.01-4.653-2.831-2.826l-5.812 5.821c-.771.772-.765 2.074.013 2.839l6.367 6.26c1.845 1.813 4.636-1.051 2.805-2.852l-2.66-2.615h33.774c1.104 0 2-.896 2-2v-35.397h11.877v60.366l-2.703-2.67c-1.833-1.809-4.646 1.033-2.811 2.846l5.853 5.78c.769.759 2.052.757 2.817-.007l6.323-6.304c.782-.779.784-2.044.006-2.826.194.195.387.388-.002-.002-.388-.389-.196-.196-.002-.002-.78-.779-2.044-.783-2.827-.002l-2.656 2.647v-59.826h11.878v35.397c0 1.104.896 2 2 2h39.251l-2.66 2.615c-1.828 1.798.956 4.668 2.805 2.852l6.367-6.26c.781-.764.787-2.067.016-2.839z"/></svg>