<svg id="Capa_1" enable-background="new 0 0 511.65 511.65" height="512" viewBox="0 0 511.65 511.65" width="512" xmlns="http://www.w3.org/2000/svg"><g><path d="m498.512 211.14-38.24-4.784c-4.473-17.045-11.216-33.297-20.134-48.531l23.68-30.447c4.644-5.972 4.115-14.467-1.234-19.815l-42.416-42.416c-5.349-5.349-13.843-5.877-19.815-1.234l-30.45 23.681c-15.239-8.92-31.492-15.662-48.53-20.135l-4.784-38.241c-.939-7.506-7.319-13.138-14.884-13.138h-41.411c6.604 12.279 10.357 26.309 10.357 41.2v87.355c148.996 4.324 148.917 218.471 0 222.756v87.355c0 14.892-3.753 28.922-10.357 41.2h41.411c7.564 0 13.945-5.632 14.884-13.138l4.784-38.241c17.044-4.473 33.297-11.216 48.531-20.134l30.448 23.68c5.971 4.643 14.466 4.116 19.815-1.234l42.416-42.416c5.349-5.349 5.878-13.844 1.234-19.815l-23.681-30.448c8.92-15.241 15.662-31.491 20.135-48.53l38.24-4.784c7.506-.938 13.138-7.319 13.138-14.884v-59.977c.001-7.566-5.631-13.946-13.137-14.885z"/><path d="m183.383.012c-75.888 2.894-75.831 111.668.001 114.533 8.283 0 14.999 6.716 14.999 15s-6.716 15-15 15c-42.945 0-78.741-31.182-85.943-72.093-54.986-4.118-83.42 64.9-41.52 100.676 4.473 3.816 6.305 9.894 4.684 15.546-1.62 5.652-6.394 9.836-12.209 10.702-64.548 11.115-64.505 102.178 0 113.271 5.815.866 10.589 5.051 12.209 10.703 1.62 5.651-.211 11.729-4.685 15.545-41.911 35.804-13.444 104.795 41.521 100.677 7.203-40.911 42.999-72.093 85.943-72.093 8.284 0 15 6.716 15 15s-6.716 15-15 15c-31.577 0-57.267 25.689-57.267 57.267 2.869 75.85 111.661 75.863 114.533 0v-183.734h-48.233c-31.577 0-57.267 25.689-57.267 57.267 0 8.284-6.716 15-15 15s-15-6.716-15-15c0-30.027 15.244-56.559 38.399-72.267-23.155-15.708-38.399-42.24-38.399-72.267 0-8.284 6.716-15 15-15s15 6.716 15 15c0 31.577 25.69 57.267 57.267 57.267h48.233v-183.733c.001-31.577-25.688-57.267-57.266-57.267z"/><path d="m353.117 256.012c.037-45.236-37.223-82.053-82.467-81.378v162.756c45.244.675 82.503-36.142 82.467-81.378z"/></g></svg>