<?xml version="1.0" encoding="iso-8859-1"?>
<!-- Generator: Adobe Illustrator 19.0.0, SVG Export Plug-In . SVG Version: 6.00 Build 0)  -->
<svg version="1.1" id="Capa_1" xmlns="http://www.w3.org/2000/svg" xmlns:xlink="http://www.w3.org/1999/xlink" x="0px" y="0px"
	 viewBox="0 0 512 512" style="enable-background:new 0 0 512 512;" xml:space="preserve">
<g>
	<g>
		<g>
			<path d="M409.373,247.119c46.075,0,83.56-37.485,83.56-83.56c0-46.075-37.485-83.559-83.56-83.559s-83.56,37.484-83.56,83.559
				C325.813,209.634,363.298,247.119,409.373,247.119z M409.373,120c24.019,0,43.56,19.541,43.56,43.559
				c0,24.019-19.541,43.56-43.56,43.56s-43.56-19.541-43.56-43.56C365.813,139.541,385.354,120,409.373,120z"/>
			<path d="M159.831,264.881H20c-11.046,0-20,8.954-20,20V412c0,11.046,8.954,20,20,20h139.831c11.046,0,20-8.954,20-20V284.881
				C179.831,273.836,170.876,264.881,159.831,264.881z M139.831,392H40v-87.119h99.831V392z"/>
			<path d="M511.156,406.253L473.02,279.134c-2.538-8.459-10.324-14.253-19.156-14.253h-88.982c-8.832,0-16.618,5.793-19.156,14.253
				L307.59,406.253c-1.817,6.056-0.663,12.613,3.11,17.686c3.773,5.073,9.724,8.061,16.046,8.061H492
				c6.322,0,12.272-2.989,16.046-8.062S512.974,412.309,511.156,406.253z M353.627,392l26.136-87.119h59.221L465.119,392H353.627z"
				/>
			<path d="M256,0c-11.046,0-20,8.954-20,20v472c0,11.046,8.954,20,20,20c11.046,0,20-8.954,20-20V20C276,8.954,267.046,0,256,0z"/>
			<path d="M89.915,247.119c46.075,0,83.56-37.485,83.56-83.56c0-46.075-37.485-83.559-83.56-83.559
				C43.84,80,6.356,117.484,6.356,163.559C6.356,209.634,43.84,247.119,89.915,247.119z M89.915,120
				c24.019,0,43.56,19.541,43.56,43.559c0,24.019-19.541,43.56-43.56,43.56c-24.019,0-43.559-19.541-43.559-43.56
				C46.356,139.541,65.896,120,89.915,120z"/>
		</g>
	</g>
</g>
<g>
</g>
<g>
</g>
<g>
</g>
<g>
</g>
<g>
</g>
<g>
</g>
<g>
</g>
<g>
</g>
<g>
</g>
<g>
</g>
<g>
</g>
<g>
</g>
<g>
</g>
<g>
</g>
<g>
</g>
</svg>
